STARTFONT 2.1
FONT -Bellota Text-Bold-R-Bold--21-21-75-75-c-80-iso10646-1
SIZE 21 75 75
FONTBOUNDINGBOX 16 15 0 0
STARTPROPERTIES 10
FAMILY_NAME Bellota Text
WEIGHT_NAME Bold
FONT_VERSION 4.001
COPYRIGHT Copyright 2019 The Bellota Project Authors (https://github.com/kemie/Bellota-Font)
FOUNDRY FontForge
FONT_ASCENT 17
FONT_DESCENT 4
CAP_HEIGHT 17
POINT_SIZE 21
X_HEIGHT 10
ENDPROPERTIES
CHARS 10
STARTCHAR U+0041
ENCODING 65
SWIDTH 875 0
DWIDTH 14 0
BBX 14 15 0 0
BITMAP
0300
0300
0780
0780
0CC0
0CC0
1860
1860
3FF0
3FF0
6018
6018
C00C
C00C
C00C
ENDCHAR
STARTCHAR U+0045
ENCODING 69
SWIDTH 750 0
DWIDTH 12 0
BBX 9 15 2 0
BITMAP
FF80
FF80
C000
C000
C000
C000
FF00
FF00
C000
C000
C000
C000
C000
FF80
FF80
ENDCHAR
STARTCHAR U+0046
ENCODING 70
SWIDTH 750 0
DWIDTH 12 0
BBX 9 15 2 0
BITMAP
FF80
FF80
C000
C000
C000
C000
FF00
FF00
C000
C000
C000
C000
C000
C000
C000
ENDCHAR
STARTCHAR U+0049
ENCODING 73
SWIDTH 375 0
DWIDTH 6 0
BBX 2 15 3 0
BITMAP
C0
C0
C0
C0
C0
C0
C0
C0
C0
C0
C0
C0
C0
C0
C0
ENDCHAR
STARTCHAR U+004D
ENCODING 77
SWIDTH 1000 0
DWIDTH 16 0
BBX 12 15 2 0
BITMAP
8010
C030
E070
F0F0
F9F0
DFB0
CF30
C630
C030
C030
C030
C030
C030
C030
C030
ENDCHAR
STARTCHAR U+004E
ENCODING 78
SWIDTH 1000 0
DWIDTH 16 0
BBX 12 15 2 0
BITMAP
8030
C030
E030
F030
F830
D830
CC30
CE30
C730
C330
C1B0
C1F0
C0F0
C070
C030
ENDCHAR
STARTCHAR U+004F
ENCODING 79
SWIDTH 1062 0
DWIDTH 17 0
BBX 15 15 1 0
BITMAP
07C0
1FF0
3838
701C
600C
C006
C006
C006
C006
C006
600C
701C
3838
1FF0
07C0
ENDCHAR
STARTCHAR U+0050
ENCODING 80
SWIDTH 812 0
DWIDTH 13 0
BBX 9 15 2 0
BITMAP
FE00
FF00
C180
C180
C180
C180
C300
DF00
DC00
C000
C000
C000
C000
C000
C000
ENDCHAR
STARTCHAR U+0052
ENCODING 82
SWIDTH 812 0
DWIDTH 13 0
BBX 10 15 2 0
BITMAP
FE00
FF00
C180
C180
C180
C180
C300
DF00
DC00
CC00
C600
C300
C180
C0C0
C040
ENDCHAR
STARTCHAR U+0054
ENCODING 84
SWIDTH 562 0
DWIDTH 9 0
BBX 8 15 1 0
BITMAP
FF
FF
18
18
18
18
18
18
18
18
18
18
18
18
18
ENDCHAR
ENDFONT
